<?xml version="1.0" standalone="no"?>
<!DOCTYPE svg PUBLIC "-//W3C//DTD SVG 20010904//EN"
 "http://www.w3.org/TR/2001/REC-SVG-20010904/DTD/svg10.dtd">
<svg version="1.0" xmlns="http://www.w3.org/2000/svg"
 width="569.000000pt" height="569.000000pt" viewBox="0 0 569.000000 569.000000"
 preserveAspectRatio="xMidYMid meet">
<metadata>
Created by potrace 1.14, written by Peter Selinger 2001-2017
</metadata>
<g transform="translate(0.000000,569.000000) scale(0.100000,-0.100000)"
fill="#000000" stroke="none">
<path d="M3445 5683 c-11 -2 -47 -9 -80 -15 -33 -7 -62 -13 -65 -13 -33 -5
-139 -44 -205 -74 -323 -150 -556 -445 -621 -788 -13 -72 -16 -155 -16 -458 0
-203 -3 -375 -7 -382 -9 -16 -171 62 -279 134 -110 73 -259 220 -353 349 l-74
101 -60 -44 c-33 -24 -61 -47 -63 -52 -1 -4 41 -63 94 -132 53 -68 102 -131
108 -139 6 -8 -8 0 -32 19 -77 60 -277 267 -338 348 -8 12 -20 6 -67 -32 l-58
-47 27 -36 c44 -59 145 -183 189 -232 22 -25 33 -40 25 -34 -70 49 -209 171
-325 286 l-139 138 -25 -23 c-14 -12 -40 -36 -58 -53 l-33 -31 87 -87 c408
-414 859 -705 1309 -846 l71 -22 0 -1756 0 -1757 160 -3 160 -2 1 1707 c0 940
1 1718 1 1729 1 20 4 21 48 13 234 -44 702 -56 918 -24 146 22 324 96 460 193
240 169 390 399 464 713 17 75 26 177 24 294 -8 475 -411 941 -903 1045 -78
16 -286 24 -345 13z m225 -317 c140 -23 285 -99 434 -226 95 -81 210 -271 242
-399 42 -167 10 -388 -82 -572 -37 -74 -134 -201 -184 -239 -18 -14 -44 -34
-59 -46 -77 -60 -208 -114 -331 -134 -154 -26 -566 -12 -775 26 -44 8 -93 19
-110 25 l-30 11 1 429 c1 235 5 440 9 456 4 15 9 42 12 58 9 54 65 176 116
253 126 188 321 321 524 358 15 3 29 6 30 8 5 5 161 -1 203 -8z"/>
<path d="M3571 4859 c-47 -9 -114 -40 -145 -67 -10 -10 -31 -35 -46 -57 -84
-124 -66 -293 42 -390 124 -112 314 -105 423 17 193 213 7 549 -274 497z"/>
</g>
</svg>
